<svg width="41" height="40" viewBox="0 0 41 40" fill="none" xmlns="http://www.w3.org/2000/svg">
<rect x="0.5" width="40" height="40" rx="20" fill="#4BB080"/>
<mask id="mask0_8328_5565" style="mask-type:alpha" maskUnits="userSpaceOnUse" x="8" y="8" width="25" height="24">
<rect x="8.5" y="8" width="24" height="24" fill="#D9D9D9"/>
</mask>
<g mask="url(#mask0_8328_5565)">
<path d="M26.5 17C26.2167 17 25.9793 16.904 25.788 16.712C25.596 16.5207 25.5 16.2833 25.5 16V15H24.5C24.2167 15 23.9793 14.9043 23.788 14.713C23.596 14.521 23.5 14.2833 23.5 14C23.5 13.7167 23.596 13.479 23.788 13.287C23.9793 13.0957 24.2167 13 24.5 13H25.5V12C25.5 11.7167 25.596 11.479 25.788 11.287C25.9793 11.0957 26.2167 11 26.5 11C26.7833 11 27.0207 11.0957 27.212 11.287C27.404 11.479 27.5 11.7167 27.5 12V13H28.5C28.7833 13 29.0207 13.0957 29.212 13.287C29.404 13.479 29.5 13.7167 29.5 14C29.5 14.2833 29.404 14.521 29.212 14.713C29.0207 14.9043 28.7833 15 28.5 15H27.5V16C27.5 16.2833 27.404 16.5207 27.212 16.712C27.0207 16.904 26.7833 17 26.5 17ZM15.5 25H25.5C25.7 25 25.85 24.9083 25.95 24.725C26.05 24.5417 26.0333 24.3667 25.9 24.2L23.15 20.525C23.05 20.3917 22.9167 20.325 22.75 20.325C22.5833 20.325 22.45 20.3917 22.35 20.525L19.75 24L17.9 21.525C17.8 21.3917 17.6667 21.325 17.5 21.325C17.3333 21.325 17.2 21.3917 17.1 21.525L15.1 24.2C14.9667 24.3667 14.95 24.5417 15.05 24.725C15.15 24.9083 15.3 25 15.5 25ZM13.5 29C12.95 29 12.479 28.8043 12.087 28.413C11.6957 28.021 11.5 27.55 11.5 27V13C11.5 12.45 11.6957 11.979 12.087 11.587C12.479 11.1957 12.95 11 13.5 11H21.5V16C21.5 16.2833 21.596 16.5207 21.788 16.712C21.9793 16.904 22.2167 17 22.5 17H23.5V18C23.5 18.2833 23.596 18.5207 23.788 18.712C23.9793 18.904 24.2167 19 24.5 19H29.5V27C29.5 27.55 29.3043 28.021 28.913 28.413C28.521 28.8043 28.05 29 27.5 29H13.5Z" fill="white"/>
</g>
</svg>
