<svg width="136" height="136" viewBox="0 0 136 136" fill="none" xmlns="http://www.w3.org/2000/svg">
<path opacity="0.21" d="M136 68C136 30.4446 105.555 0 68 0C30.4446 0 0 30.4446 0 68C0 105.555 30.4446 136 68 136C105.555 136 136 105.555 136 68Z" fill="#E5E5E5"/>
<path opacity="0.5" d="M30.314 97.524C30.314 97.524 44.503 111.124 69.333 111.124C94.163 111.124 108.352 97.524 108.352 97.524C108.352 75.649 90.616 65.599 69.333 65.599C48.05 65.599 30.314 75.648 30.314 97.524Z" fill="#E5E5E5"/>
<path opacity="0.5" d="M34.3569 92.583C34.3569 92.583 45.6959 103.449 65.5399 103.449C85.3839 103.449 96.7229 92.583 96.7229 92.583C96.7229 75.101 82.5489 67.069 65.5399 67.069C48.5309 67.069 34.3569 75.103 34.3569 92.583Z" fill="white"/>
<path d="M69.3329 114.667C43.3779 114.667 28.4799 100.681 27.8629 100.085C27.5158 99.7548 27.2394 99.3575 27.0503 98.9173C26.8612 98.4771 26.7634 98.0031 26.7629 97.524C26.7629 75.645 43.0729 62.052 69.3289 62.052C95.5849 62.052 111.895 75.645 111.895 97.524C111.894 98.0031 111.797 98.4771 111.608 98.9173C111.419 99.3575 111.142 99.7548 110.795 100.085C110.186 100.685 95.2879 114.667 69.3329 114.667ZM33.8969 95.913C37.5899 98.861 50.1389 107.572 69.3329 107.572C88.5269 107.572 101.077 98.861 104.767 95.913C103.685 71.108 77.4789 69.146 69.3309 69.146C61.1829 69.146 34.9789 71.108 33.8969 95.913Z" fill="#E5E5E5"/>
<path opacity="0.5" d="M69.333 59.685C80.1075 59.685 88.842 50.9505 88.842 40.176C88.842 29.4015 80.1075 20.667 69.333 20.667C58.5585 20.667 49.824 29.4015 49.824 40.176C49.824 50.9505 58.5585 59.685 69.333 59.685Z" fill="#E5E5E5"/>
<path opacity="0.5" d="M67.56 49.045C73.4374 49.045 78.202 44.2804 78.202 38.403C78.202 32.5256 73.4374 27.761 67.56 27.761C61.6826 27.761 56.918 32.5256 56.918 38.403C56.918 44.2804 61.6826 49.045 67.56 49.045Z" fill="white"/>
<path d="M69.333 27.761C71.7884 27.761 74.1888 28.4891 76.2304 29.8533C78.272 31.2175 79.8633 33.1564 80.803 35.425C81.7426 37.6935 81.9885 40.1898 81.5094 42.5981C81.0304 45.0063 79.848 47.2184 78.1117 48.9547C76.3754 50.691 74.1633 51.8734 71.7551 52.3524C69.3468 52.8315 66.8505 52.5856 64.582 51.646C62.3134 50.7063 60.3745 49.115 59.0103 47.0734C57.6461 45.0318 56.918 42.6314 56.918 40.176C56.9217 36.8845 58.2309 33.7288 60.5584 31.4014C62.8858 29.0739 66.0415 27.7647 69.333 27.761V27.761ZM69.333 20.667C65.4745 20.667 61.7026 21.8112 58.4944 23.9549C55.2861 26.0985 52.7856 29.1454 51.309 32.7102C49.8324 36.275 49.4461 40.1976 50.1988 43.982C50.9516 47.7664 52.8097 51.2426 55.538 53.9709C58.2664 56.6993 61.7426 58.5574 65.527 59.3101C69.3113 60.0629 73.2339 59.6765 76.7988 58.2C80.3636 56.7234 83.4104 54.2229 85.5541 51.0146C87.6978 47.8064 88.842 44.0345 88.842 40.176C88.8423 37.614 88.3378 35.077 87.3575 32.7099C86.3772 30.3428 84.9402 28.1921 83.1285 26.3805C81.3169 24.5688 79.1661 23.1318 76.7991 22.1515C74.432 21.1712 71.895 20.6667 69.333 20.667V20.667Z" fill="#E5E5E5"/>
</svg>
