<svg width="40" height="40" viewBox="0 0 40 40" fill="none" xmlns="http://www.w3.org/2000/svg">
<g filter="url(#filter0_b_5996_23448)">
<path d="M20 40C31.0457 40 40 31.0457 40 20C40 8.9543 31.0457 0 20 0C8.9543 0 0 8.9543 0 20C0 31.0457 8.9543 40 20 40Z" fill="black" fill-opacity="0.5"/>
</g>
<path d="M29.8779 30.916H11.1279C10.2994 30.9152 9.50498 30.5857 8.9191 29.9998C8.33322 29.414 8.00372 28.6196 8.00293 27.791V16.333C8.00399 15.5045 8.33357 14.7103 8.91939 14.1245C9.50521 13.5387 10.2995 13.2091 11.1279 13.208H14.7369L16.5109 10.548C16.6058 10.4049 16.7346 10.2875 16.8859 10.2064C17.0372 10.1252 17.2062 10.0829 17.3779 10.083H23.6279C23.7996 10.083 23.9686 10.1255 24.1198 10.2066C24.2711 10.2878 24.4 10.405 24.4949 10.548L26.2689 13.208H29.8779C30.7064 13.2091 31.5006 13.5387 32.0865 14.1245C32.6723 14.7103 33.0019 15.5045 33.0029 16.333V27.791C33.0021 28.6196 32.6726 29.414 32.0868 29.9998C31.5009 30.5857 30.7065 30.9152 29.8779 30.916V30.916ZM11.1279 15.291C10.8517 15.2913 10.5868 15.4011 10.3914 15.5965C10.1961 15.7919 10.0862 16.0567 10.0859 16.333V27.791C10.0862 28.0673 10.1961 28.3322 10.3914 28.5275C10.5868 28.7229 10.8517 28.8327 11.1279 28.833H29.8779C30.1543 28.833 30.4193 28.7232 30.6147 28.5278C30.8101 28.3324 30.9199 28.0674 30.9199 27.791V16.333C30.9197 16.0567 30.8098 15.7919 30.6144 15.5965C30.4191 15.4011 30.1542 15.2913 29.8779 15.291H25.7079C25.5364 15.291 25.3675 15.2487 25.2163 15.1677C25.065 15.0868 24.9361 14.9697 24.8409 14.827L23.0669 12.166H17.9319L16.1579 14.827C16.0627 14.9697 15.9338 15.0867 15.7825 15.1676C15.6313 15.2485 15.4625 15.2909 15.2909 15.291H11.1279Z" fill="white"/>
<path d="M20.5 26.75C19.1192 26.7484 17.7955 26.1992 16.8191 25.2228C15.8428 24.2465 15.2936 22.9227 15.292 21.542C15.2936 20.1612 15.8428 18.8375 16.8191 17.8611C17.7955 16.8848 19.1192 16.3356 20.5 16.334C21.8808 16.3356 23.2045 16.8848 24.1809 17.8611C25.1572 18.8375 25.7064 20.1612 25.708 21.542C25.7064 22.9227 25.1572 24.2465 24.1809 25.2228C23.2045 26.1992 21.8808 26.7484 20.5 26.75V26.75ZM20.5 18.417C19.6715 18.418 18.8773 18.7476 18.2915 19.3335C17.7056 19.9193 17.3761 20.7135 17.375 21.542C17.3758 22.3705 17.7053 23.1649 18.2912 23.7508C18.877 24.3367 19.6714 24.6662 20.5 24.667C21.3286 24.6662 22.1229 24.3367 22.7088 23.7508C23.2947 23.1649 23.6242 22.3705 23.625 21.542C23.6242 20.7133 23.2947 19.9188 22.7089 19.3328C22.123 18.7468 21.3286 18.417 20.5 18.416V18.417Z" fill="white"/>
<defs>
<filter id="filter0_b_5996_23448" x="-30" y="-30" width="100" height="100" filterUnits="userSpaceOnUse" color-interpolation-filters="sRGB">
<feFlood flood-opacity="0" result="BackgroundImageFix"/>
<feGaussianBlur in="BackgroundImageFix" stdDeviation="15"/>
<feComposite in2="SourceAlpha" operator="in" result="effect1_backgroundBlur_5996_23448"/>
<feBlend mode="normal" in="SourceGraphic" in2="effect1_backgroundBlur_5996_23448" result="shape"/>
</filter>
</defs>
</svg>
