<svg width="178" height="171" viewBox="0 0 178 171" fill="none" xmlns="http://www.w3.org/2000/svg">
<g clip-path="url(#clip0_6001_21082)">
<path d="M94.4298 129.79C91.7827 130.191 89.8464 131.866 90.1049 133.531C90.3633 135.196 92.7185 136.22 95.3664 135.819C96.4264 135.673 97.4356 135.278 98.3095 134.667L109.504 132.828L108.756 128.455L97.5877 130.017C96.5685 129.693 95.4856 129.615 94.4298 129.79H94.4298Z" fill="#FFB6B6"/>
<path d="M142.667 116.158L138.327 125.262L116.506 132.522L98.3999 133.476L97.9465 129.178L117.57 125.123L137.706 115.718L142.667 116.158Z" fill="#E6E6E6"/>
<path d="M93.1608 97.1141L92.5657 97.1271L93.7033 148.217L94.2983 148.204L93.1608 97.1141Z" fill="#0051CA"/>
<path d="M93.1736 119.735C93.1197 119.554 91.8861 115.245 94.5574 111.01L95.0624 111.321C92.5364 115.326 93.7323 119.528 93.7447 119.57L93.1736 119.735Z" fill="#0051CA"/>
<path d="M94.7662 111.337C94.7662 111.337 93.9541 105.851 101.435 104.345C102.994 104.032 104.459 103.817 105.802 103.675C107.387 103.506 108.006 105.651 106.574 106.344C104.499 107.347 102.548 108.611 101.531 110.108C98.7266 114.237 94.7662 111.337 94.7662 111.337Z" fill="#96A6FC"/>
<path d="M93.9431 135.599L93.372 135.434C93.3844 135.392 94.5803 131.19 92.0544 127.185L92.5593 126.874C95.2306 131.109 93.997 135.418 93.9431 135.599Z" fill="#0051CA"/>
<path d="M92.3506 127.201C92.3506 127.201 93.1627 121.715 85.6816 120.209C84.123 119.896 82.6578 119.681 81.3147 119.539C79.7293 119.37 79.1109 121.515 80.5431 122.208C82.6173 123.211 84.5684 124.475 85.5854 125.972C88.3902 130.101 92.3506 127.201 92.3506 127.201H92.3506Z" fill="#96A6FC"/>
<path d="M102.763 90.0206C104.269 89.6281 105.677 88.9444 105.63 88.268C105.575 87.4644 103.484 86.926 101.681 86.8441C103.041 85.7922 104.291 84.3381 103.909 83.6805C103.557 83.0759 101.922 83.3101 100.414 83.8426C101.307 82.5813 101.934 81.1601 101.456 80.6737C100.861 80.0679 98.7481 81.1136 97.3061 82.2695C97.5869 80.4687 97.4449 78.1957 96.6277 77.99C95.9441 77.818 94.9751 79.1402 94.3108 80.5806C94.0172 79.069 93.4229 77.634 92.7369 77.634C91.7597 77.634 90.9675 80.546 90.9675 82.4432C90.9675 82.5504 90.9704 82.6513 90.9753 82.7478C90.8772 82.6354 90.7648 82.518 90.6366 82.395C89.2596 81.0732 86.5941 79.6061 85.9133 80.299C85.4354 80.7854 86.0629 82.2066 86.9555 83.4678C85.4472 82.9354 83.8124 82.7012 83.461 83.3058C82.9888 84.1181 85.0072 86.1461 86.6478 87.1295C86.5491 87.1178 86.4455 87.1079 86.3353 87.1004C84.4202 86.9713 81.4268 87.5542 81.3603 88.5178C81.3136 89.1942 82.7217 89.878 84.2275 90.2704C82.7283 90.8274 81.3277 91.6928 81.4548 92.3787C81.6091 93.211 83.9626 93.5024 85.813 93.3319C84.4306 94.6428 82.9316 96.9912 83.5572 97.6795C84.0156 98.1838 85.4929 97.6618 86.8268 96.8675C86.1867 98.3185 85.839 99.9146 86.4253 100.302C87.2003 100.815 89.3255 99.0314 90.446 97.4971C90.3319 99.3742 90.7863 101.953 91.688 102.055C92.3695 102.132 93.1248 100.772 93.59 99.3036C94.0847 100.809 94.8956 102.232 95.5946 102.137C96.5035 102.015 96.8998 99.3714 96.7302 97.493C97.886 98.9642 99.8312 100.538 100.565 100.052C101.151 99.6647 100.804 98.0687 100.164 96.6177C101.497 97.412 102.975 97.934 103.433 97.4296C104.059 96.7414 102.56 94.393 101.177 93.082C103.028 93.2526 105.381 92.9612 105.536 92.1288C105.663 91.443 104.262 90.5776 102.763 90.0206ZM94.6547 95.3301C94.2677 95.3823 93.9137 95.4568 93.6446 95.6472C93.3586 95.3666 92.941 95.2812 92.4767 95.2288C91.9567 95.1701 91.4842 95.1644 91.1239 95.461C90.9921 95.0988 90.6679 94.8415 90.2902 94.5918C89.9655 94.3771 89.6506 94.2009 89.3214 94.1669C89.2957 93.7695 89.0405 93.4318 88.7282 93.0882C88.529 92.869 88.3298 92.6731 88.1087 92.5421C88.4277 92.1582 88.3909 91.6731 88.2922 91.1406C88.2218 90.7608 88.1303 90.4147 87.9257 90.1577C88.1962 89.8626 88.2635 89.4463 88.2953 88.9855C88.3301 88.4823 88.3157 88.026 88.0218 87.6863C88.7812 87.7818 89.1477 87.3141 89.4884 86.7281C89.683 86.3933 89.8395 86.0707 89.8513 85.7438C90.2507 85.6914 90.5743 85.4168 90.8999 85.0854C91.1781 84.8023 91.4147 84.522 91.5035 84.1994C91.8222 84.4642 92.2571 84.5042 92.7369 84.5042C93.2043 84.5042 93.629 84.4662 93.9453 84.2195C94.1909 84.4388 94.534 84.5526 94.9125 84.6478C95.2739 84.7388 95.6151 84.7996 95.9252 84.7384C96.0384 84.994 96.2397 85.2262 96.4697 85.4602C96.7953 85.7915 97.1188 86.0662 97.5182 86.1186C97.5301 86.4455 97.6866 86.768 97.8812 87.1028C98.1102 87.4969 98.3508 87.8376 98.7147 87.9897C98.6722 88.2186 98.6768 88.4706 98.6951 88.7356C98.7269 89.1965 98.7942 89.6128 99.0647 89.9079C98.8601 90.1649 98.7686 90.511 98.6982 90.8908C98.5995 91.4232 98.5627 91.9084 98.8817 92.2923C98.6606 92.4233 98.4614 92.6192 98.2622 92.8383C97.9499 93.182 97.6947 93.5197 97.6689 93.9171C97.3398 93.9511 97.0249 94.1273 96.7002 94.342C96.2567 94.6352 95.8872 94.9391 95.8163 95.411C95.4835 95.2514 95.0851 95.272 94.6547 95.3301Z" fill="#96A6FC"/>
<path d="M93.6216 96.2462C97.1116 96.2462 99.9409 93.4499 99.9409 90.0005C99.9409 86.5511 97.1116 83.7548 93.6216 83.7548C90.1315 83.7548 87.3023 86.5511 87.3023 90.0005C87.3023 93.4499 90.1315 96.2462 93.6216 96.2462Z" fill="#0051CA"/>
<path d="M102.422 150.723L98.5256 160.465L93.4825 157.067L96.4625 146.872L102.422 150.723Z" fill="#FFB6B6"/>
<path d="M86.1472 147.099L75.8319 156.841L79.9581 161.145L90.5026 152.989L86.1472 147.099Z" fill="#FFB6B6"/>
<path d="M144.6 115.38L144.486 114.587L141.85 109.49L133.139 111.755L134.744 118.779L144.6 115.38Z" fill="#FFB6B6"/>
<path d="M140.933 149.364L141.201 152.767C141.201 152.767 142.308 167.036 133.368 168.168C124.428 169.301 120.531 170.434 115.259 161.598L107.007 147.098L102.187 152.767L95.7748 147.778C95.7748 147.778 100.359 130.107 104.027 129.427C104.485 129.342 104.944 129.299 105.395 129.29C108.432 129.228 111.294 130.695 113.111 133.101L123.511 146.872L127.294 145.173L140.933 149.364H140.933Z" fill="#2F2E41"/>
<path d="M91.4195 160.012L93.4825 156.161L99.4425 160.239C99.4425 160.239 100.818 165.223 98.7548 165.903C96.6917 166.583 90.961 165.676 90.961 165.676C90.961 165.676 80.4165 167.942 80.1873 165.903C79.9581 163.864 85.0011 163.411 85.0011 163.411L91.4195 160.012Z" fill="#2F2E41"/>
<path d="M113.884 157.294L97.9525 147.372L89.8149 154.575L84.3134 148.231C84.3134 148.231 94.3994 133.505 97.3794 132.825C100.359 132.146 105.173 131.693 105.173 131.693L119.844 145.059L113.884 157.294Z" fill="#2F2E41"/>
<path d="M75.6027 155.934L80.875 161.598L80.1797 162.186C80.1797 162.186 78.8119 168.074 75.6027 166.082C72.3935 164.09 72.1643 163.637 72.1643 163.637C72.1643 163.637 62.9951 165.676 62.0782 162.051C61.1613 158.426 63.6828 159.106 63.6828 159.106L65.9724 160.465L75.6027 155.934L75.6027 155.934Z" fill="#2F2E41"/>
<path d="M135.89 114.247C139.941 114.247 143.225 111.002 143.225 106.998C143.225 102.994 139.941 99.7477 135.89 99.7477C131.839 99.7477 128.554 102.994 128.554 106.998C128.554 111.002 131.839 114.247 135.89 114.247Z" fill="#FFB6B6"/>
<path d="M134.171 117.306L144.715 114.134C144.715 114.134 148.841 123.65 148.154 127.954C147.466 132.259 141.201 152.767 141.201 152.767L127.294 145.173C127.294 145.173 127.064 140.642 126.377 138.603C125.689 136.563 123.511 130.333 128.325 125.122C133.139 119.911 134.171 117.306 134.171 117.306V117.306Z" fill="#E6E6E6"/>
<path d="M31.1945 45.8682L30.5997 45.8811L33.2775 166.155L33.8723 166.142L31.1945 45.8682Z" fill="#0051CA"/>
<path d="M32.0141 99.001C31.9836 98.8982 29.0336 88.6032 35.2273 78.7834L35.7323 79.0945C29.678 88.6934 32.5553 98.7351 32.5851 98.8356L32.0141 99.001Z" fill="#0051CA"/>
<path d="M35.3769 79.3422C35.3769 79.3422 33.4651 66.4276 51.0768 62.8832C54.7459 62.1448 58.1952 61.6401 61.3571 61.3039C65.0894 60.907 66.5453 65.9566 63.1736 67.5876C58.2907 69.9497 53.6974 72.9257 51.3033 76.45C44.7004 86.1698 35.3769 79.3422 35.3769 79.3422Z" fill="#96A6FC"/>
<path d="M33.0529 136.348L32.4819 136.182C32.5116 136.082 35.3833 126.031 29.3347 116.441L29.8397 116.13C36.0335 125.95 33.0834 136.245 33.0529 136.348Z" fill="#0051CA"/>
<path d="M29.6901 116.689C29.6901 116.689 31.6019 103.774 13.9902 100.23C10.3212 99.4915 6.87181 98.9868 3.7099 98.6506C-0.0224121 98.2537 -1.47829 103.303 1.89339 104.934C6.77633 107.296 11.3696 110.272 13.7637 113.797C20.3667 123.516 29.6901 116.689 29.6901 116.689Z" fill="#96A6FC"/>
<path d="M54.2024 29.1601C57.7474 28.2363 61.0624 26.6266 60.9524 25.0342C60.8218 23.1425 55.9002 21.875 51.6543 21.6821C54.8568 19.2058 57.7994 15.7827 56.8996 14.2345C56.0723 12.8112 52.2237 13.3626 48.673 14.6161C50.7742 11.6469 52.2516 8.30115 51.1265 7.15614C49.725 5.72984 44.7509 8.19164 41.3564 10.9128C42.0172 6.67349 41.6831 1.32232 39.7593 0.838179C38.1498 0.433154 35.8688 3.54598 34.3049 6.93688C33.6137 3.37839 32.2145 0 30.5996 0C28.299 0 26.4341 6.85535 26.4341 11.3216C26.4341 11.5741 26.4409 11.8117 26.4525 12.0388C26.2216 11.7742 25.957 11.4978 25.6552 11.2081C22.4135 8.09656 16.1384 4.64282 14.5356 6.27393C13.4105 7.41894 14.8879 10.7647 16.9891 13.7339C13.4384 12.4804 9.58985 11.929 8.76255 13.3523C7.65095 15.2648 12.4025 20.0389 16.2648 22.3541C16.0326 22.3264 15.7887 22.3031 15.5291 22.2856C11.0207 21.9816 3.97368 23.3539 3.81706 25.6223C3.70712 27.2147 7.02214 28.8244 10.5671 29.7482C7.03775 31.0595 3.74032 33.0969 4.03962 34.7115C4.40285 36.671 9.94331 37.357 14.2996 36.9555C11.0451 40.0416 7.51621 45.5702 8.98893 47.1904C10.0682 48.3778 13.5461 47.1488 16.6863 45.2789C15.1792 48.6949 14.3607 52.4522 15.7411 53.3649C17.5654 54.571 22.5686 50.3732 25.2065 46.7612C24.9377 51.1801 26.0076 57.2509 28.1302 57.4904C29.7347 57.6715 31.5127 54.4719 32.608 51.0139C33.7725 54.5582 35.6815 57.9067 37.327 57.6848C39.4668 57.3962 40.3996 51.1735 40.0005 46.7514C42.7215 50.2148 47.3008 53.9189 49.0284 52.7768C50.4088 51.8641 49.5903 48.1067 48.0832 44.6908C51.2234 46.5607 54.7013 47.7896 55.7806 46.6023C57.2533 44.982 53.7244 39.4535 50.4699 36.3673C54.8262 36.7689 60.3667 36.0829 60.7299 34.1233C61.0292 32.5087 57.7318 30.4714 54.2024 29.1601L54.2024 29.1601ZM35.1145 41.6596C34.2033 41.7825 33.3701 41.958 32.7364 42.4061C32.0633 41.7457 31.0801 41.5445 29.9869 41.4211C28.7629 41.283 27.6506 41.2696 26.8023 41.9678C26.492 41.1151 25.7288 40.5094 24.8398 39.9216C24.0753 39.4162 23.334 39.0014 22.559 38.9214C22.4985 37.9858 21.8977 37.1907 21.1624 36.3817C20.6936 35.8659 20.2245 35.4048 19.704 35.0963C20.455 34.1926 20.3684 33.0504 20.136 31.7969C19.9703 30.9028 19.7549 30.0881 19.2731 29.4829C19.91 28.7882 20.0685 27.8083 20.1434 26.7234C20.2252 25.5387 20.1912 24.4646 19.4994 23.6649C21.2873 23.8896 22.1501 22.7888 22.9521 21.409C23.4102 20.6209 23.7785 19.8616 23.8065 19.092C24.7468 18.9686 25.5085 18.3221 26.275 17.542C26.9298 16.8756 27.4868 16.2157 27.696 15.4562C28.4463 16.0794 29.4701 16.1738 30.5996 16.1738C31.6998 16.1738 32.6998 16.0842 33.4444 15.5034C34.0225 16.0197 34.8302 16.2875 35.7214 16.5118C36.5722 16.7259 37.3753 16.8691 38.1054 16.725C38.372 17.3268 38.8459 17.8733 39.3871 18.4242C40.1536 19.2043 40.9153 19.8508 41.8556 19.9742C41.8836 20.7438 42.2519 21.5031 42.71 22.2912C43.2493 23.219 43.8157 24.0212 44.6723 24.3791C44.5723 24.918 44.583 25.5112 44.6261 26.1352C44.701 27.2202 44.8595 28.2001 45.4964 28.8948C45.0146 29.5 44.7992 30.3146 44.6335 31.2087C44.4011 32.4622 44.3145 33.6045 45.0655 34.5082C44.545 34.8166 44.0759 35.2778 43.6071 35.7936C42.8718 36.6026 42.271 37.3977 42.2105 38.3332C41.4355 38.4132 40.6942 38.8281 39.9297 39.3335C38.8857 40.0238 38.016 40.7393 37.849 41.85C37.0655 41.4744 36.1276 41.523 35.1145 41.6596V41.6596Z" fill="#96A6FC"/>
<path d="M32.6823 43.8162C40.8984 43.8162 47.5589 37.2332 47.5589 29.1128C47.5589 20.9923 40.8984 14.4094 32.6823 14.4094C24.4661 14.4094 17.8056 20.9923 17.8056 29.1128C17.8056 37.2332 24.4661 43.8162 32.6823 43.8162Z" fill="#0051CA"/>
<path d="M170.133 137.11L169.538 137.123L170.178 165.861L170.773 165.848L170.133 137.11Z" fill="#0051CA"/>
<path d="M169.885 149.873C169.854 149.769 169.145 147.292 170.678 144.861L171.183 145.172C169.795 147.373 170.45 149.685 170.456 149.708L169.885 149.873Z" fill="#0051CA"/>
<path d="M170.906 145.113C170.906 145.113 170.449 142.027 174.657 141.18C175.534 141.004 176.358 140.883 177.114 140.803C178.005 140.708 178.353 141.915 177.548 142.304C176.381 142.869 175.283 143.58 174.711 144.422C173.134 146.744 170.906 145.113 170.906 145.113Z" fill="#96A6FC"/>
<path d="M170.568 158.797L169.997 158.632C170.003 158.609 170.658 156.296 169.27 154.096L169.775 153.785C171.308 156.215 170.599 158.693 170.568 158.797Z" fill="#0051CA"/>
<path d="M169.547 154.037C169.547 154.037 170.004 150.951 165.796 150.104C164.919 149.927 164.095 149.807 163.339 149.727C162.448 149.632 162.1 150.838 162.905 151.228C164.072 151.792 165.17 152.503 165.742 153.346C167.319 155.668 169.547 154.037 169.547 154.037V154.037Z" fill="#96A6FC"/>
<path d="M175.404 133.123C176.251 132.902 177.043 132.517 177.017 132.137C176.986 131.685 175.81 131.382 174.795 131.336C175.56 130.744 176.263 129.926 176.048 129.556C175.851 129.216 174.931 129.348 174.083 129.648C174.585 128.938 174.938 128.139 174.669 127.865C174.334 127.524 173.146 128.113 172.335 128.763C172.493 127.75 172.413 126.471 171.953 126.355C171.568 126.259 171.023 127.002 170.65 127.813C170.485 126.962 170.15 126.155 169.764 126.155C169.215 126.155 168.769 127.793 168.769 128.86C168.769 128.921 168.771 128.977 168.774 129.032C168.718 128.969 168.655 128.902 168.583 128.833C167.808 128.09 166.309 127.265 165.926 127.654C165.657 127.928 166.01 128.727 166.512 129.437C165.664 129.137 164.744 129.006 164.547 129.346C164.281 129.803 165.416 130.943 166.339 131.496C166.284 131.49 166.226 131.484 166.163 131.48C165.086 131.407 163.402 131.735 163.365 132.277C163.339 132.658 164.131 133.042 164.978 133.263C164.135 133.577 163.347 134.063 163.418 134.449C163.505 134.917 164.829 135.081 165.87 134.985C165.092 135.723 164.249 137.044 164.601 137.431C164.859 137.714 165.69 137.421 166.44 136.974C166.08 137.79 165.884 138.688 166.214 138.906C166.65 139.194 167.846 138.191 168.476 137.328C168.412 138.384 168.667 139.835 169.174 139.892C169.558 139.935 169.983 139.171 170.244 138.344C170.523 139.191 170.979 139.991 171.372 139.938C171.883 139.869 172.106 138.383 172.011 137.326C172.661 138.153 173.755 139.038 174.168 138.766C174.498 138.548 174.302 137.65 173.942 136.834C174.692 137.28 175.523 137.574 175.781 137.29C176.133 136.903 175.29 135.582 174.512 134.845C175.553 134.941 176.877 134.777 176.964 134.309C177.035 133.923 176.247 133.436 175.404 133.123ZM170.843 136.109C170.625 136.139 170.426 136.181 170.275 136.288C170.114 136.13 169.879 136.082 169.618 136.052C169.326 136.019 169.06 136.016 168.857 136.183C168.783 135.979 168.601 135.834 168.388 135.694C168.206 135.573 168.028 135.474 167.843 135.455C167.829 135.231 167.685 135.041 167.51 134.848C167.397 134.725 167.285 134.615 167.161 134.541C167.34 134.325 167.32 134.052 167.264 133.753C167.225 133.539 167.173 133.344 167.058 133.2C167.21 133.034 167.248 132.8 167.266 132.54C167.286 132.257 167.277 132.001 167.112 131.81C167.539 131.863 167.746 131.6 167.937 131.271C168.047 131.082 168.135 130.901 168.141 130.717C168.366 130.688 168.548 130.533 168.731 130.347C168.888 130.187 169.021 130.03 169.071 129.848C169.25 129.997 169.495 130.02 169.764 130.02C170.027 130.02 170.266 129.998 170.444 129.86C170.582 129.983 170.775 130.047 170.988 130.101C171.192 130.152 171.383 130.186 171.558 130.151C171.622 130.295 171.735 130.426 171.864 130.557C172.047 130.744 172.229 130.898 172.454 130.928C172.461 131.112 172.549 131.293 172.658 131.481C172.787 131.703 172.922 131.895 173.127 131.98C173.103 132.109 173.106 132.251 173.116 132.4C173.134 132.659 173.172 132.893 173.324 133.059C173.209 133.204 173.157 133.399 173.118 133.612C173.062 133.912 173.041 134.185 173.221 134.401C173.097 134.474 172.984 134.584 172.872 134.708C172.697 134.901 172.553 135.091 172.539 135.314C172.354 135.334 172.176 135.433 171.994 135.553C171.744 135.718 171.536 135.889 171.497 136.155C171.309 136.065 171.085 136.077 170.843 136.109Z" fill="#96A6FC"/>
<path d="M170.262 136.625C172.225 136.625 173.817 135.052 173.817 133.111C173.817 131.171 172.225 129.598 170.262 129.598C168.299 129.598 166.707 131.171 166.707 133.111C166.707 135.052 168.299 136.625 170.262 136.625Z" fill="#0051CA"/>
<path d="M110.963 164.879C109.247 166.911 108.917 169.433 110.225 170.513C111.534 171.592 113.985 170.819 115.702 168.786C116.398 167.983 116.891 167.027 117.137 165.998L124.298 157.298L120.81 154.508L113.482 162.984C112.501 163.408 111.637 164.058 110.963 164.879Z" fill="#FFB6B6"/>
<path d="M142.259 121.877L144.751 131.634L132.553 150.933L120.1 163.303L116.064 159.993L128.623 144.549L138.142 124.649L142.259 121.877Z" fill="#E6E6E6"/>
<path d="M129.128 105.751C131.009 105.747 131.116 105.759 131.42 105.751C133.753 105.691 134.363 104.783 135.546 104.845C137.657 104.956 134.871 115.416 133.712 120.251C132.576 124.994 136.416 129.244 136.692 129.54C140.59 133.73 147.437 134.496 148.612 132.712C149.563 131.268 146.193 129.072 147.007 125.915C147.804 122.83 151.481 123.158 152.509 120.251C153.585 117.207 149.968 115.672 147.695 108.244C146.39 103.978 146.621 103.183 145.403 100.541C142.147 93.4782 126.19 96.4852 127.981 103.033C128.328 104.299 127.406 105.756 129.128 105.751Z" fill="#2F2E41"/>
</g>
<defs>
<clipPath id="clip0_6001_21082">
<rect width="178" height="171" fill="white"/>
</clipPath>
</defs>
</svg>
